<?xml version="1.0" encoding="iso-8859-1"?>
<!-- Generator: Adobe Illustrator 24.1.0, SVG Export Plug-In . SVG Version: 6.00 Build 0)  -->
<svg version="1.1" xmlns="http://www.w3.org/2000/svg" xmlns:xlink="http://www.w3.org/1999/xlink" x="0px" y="0px"
	 viewBox="0 0 520 520" style="enable-background:new 0 0 520 520;" xml:space="preserve">
<g id="_x33_27_x2C__Growth_x2C__Eco_x2C__Investment_x2C__Plant">
	<g>
		<g>
			<path style="fill:#EABD8C;" d="M422.86,263.43l4.22-124.74c0-7.93,3.21-15.1,8.4-20.29c5.199-5.19,12.369-8.4,20.289-8.4
				c15.851,0,28.69,12.84,28.69,28.69v188.22L353.32,448.56L353.31,480H280V376.09l-20-16.04L385.17,259.65
				c9.63-8.11,23.66-8.29,33.5-0.42C420.26,260.5,421.65,261.91,422.86,263.43z"/>
			<path style="fill:#FFD8A8;" d="M134.83,259.65c-11.397-9.599-28.432-7.847-37.69,3.779l-4.22-124.74c0-7.93-3.21-15.1-8.4-20.29
				c-5.2-5.19-12.37-8.4-20.29-8.4c-15.85,0-28.69,12.84-28.69,28.69v188.22L166.68,448.56l0.01,31.44c32.359,0,78.153,0,113.31,0
				V376.09C274.59,371.751,145.257,268.014,134.83,259.65z"/>
			<circle style="fill:#74829C;" cx="65" cy="45" r="15"/>
			<circle style="fill:#74829C;" cx="70" cy="440" r="20"/>
			<circle style="fill:#74829C;" cx="455" cy="435" r="15"/>
			<path style="fill:#536949;" d="M258.97,116.25c0.011-0.01,0-0.01,0-0.01c4.73-8.64,10.62-16.6,17.721-23.7
				C304.52,64.71,345.55,55.35,389.34,62.72c14.164,84.155-35.25,146.183-116.91,144.86
				C277.669,176.549,274.914,143.672,258.97,116.25z"/>
			<path style="fill:#80AF52;" d="M272.43,207.58c-94.494,15.904-158.39-47.881-142.47-142.47
				C224.411,49.214,288.396,113.01,272.43,207.58z"/>
			<path style="fill:#A8CFFF;" d="M469.48,56.84c0.35,1.05,0.52,2.12,0.52,3.17c0,4.18-2.65,8.08-6.84,9.48
				c-5.24,1.75-10.9-1.09-12.65-6.32c-0.35-1.05-0.52-2.12-0.52-3.16c0-4.19,2.66-8.1,6.84-9.49c1.05-0.35,2.12-0.52,3.17-0.52
				C464.19,50,468.09,52.65,469.48,56.84z"/>
			<path style="fill:#A8CFFF;" d="M379.49,216.84c0.35,1.05,0.51,2.11,0.51,3.16c0,4.19-2.65,8.09-6.84,9.49
				c-5.24,1.74-10.9-1.09-12.65-6.33c-0.35-1.05-0.51-2.11-0.51-3.16c0-4.19,2.65-8.09,6.84-9.49c1.05-0.35,2.11-0.51,3.16-0.51
				C374.19,210,378.09,212.65,379.49,216.84z"/>
			<rect x="260" y="240" style="fill:#A8CFFF;" width="20" height="20"/>
			<path style="fill:#A8CFFF;" d="M279.48,306.83c0.35,1.05,0.52,2.12,0.52,3.17c0,4.19-2.65,8.09-6.84,9.48
				c-5.24,1.75-10.9-1.08-12.65-6.32c-0.35-1.05-0.52-2.12-0.52-3.16c0-4.19,2.66-8.09,6.84-9.49c1.05-0.35,2.12-0.52,3.16-0.52
				C274.18,299.99,278.09,302.65,279.48,306.83z"/>
			<path style="fill:#A8CFFF;" d="M269.49,46.84c0.35,1.05,0.51,2.11,0.51,3.16c0,4.19-2.65,8.09-6.84,9.49
				c-5.24,1.74-10.9-1.09-12.65-6.33C250.16,52.11,250,51.05,250,50c0-4.19,2.65-8.09,6.84-9.49c1.05-0.35,2.11-0.51,3.16-0.51
				C264.19,40,268.09,42.65,269.49,46.84z"/>
			<rect x="190" y="240" style="fill:#A8CFFF;" width="60" height="20"/>
			<path style="fill:#A8CFFF;" d="M139.49,186.84c0.35,1.05,0.51,2.11,0.51,3.16c0,4.19-2.65,8.09-6.84,9.49
				c-5.24,1.74-10.9-1.09-12.65-6.33c-0.35-1.05-0.51-2.11-0.51-3.16c0-4.19,2.65-8.09,6.84-9.49c1.05-0.35,2.11-0.51,3.16-0.51
				C134.19,180,138.09,182.65,139.49,186.84z"/>
			<path style="fill:#A8CFFF;" d="M59.49,376.84c0.35,1.05,0.51,2.11,0.51,3.16c0,4.19-2.65,8.09-6.84,9.49
				c-5.24,1.74-10.9-1.09-12.65-6.33C40.16,382.11,40,381.05,40,380c0-4.19,2.65-8.09,6.84-9.49c1.05-0.35,2.11-0.51,3.16-0.51
				C54.19,370,58.09,372.65,59.49,376.84z"/>
			<path style="fill:#3E4F37;" d="M352.174,115.176l-1,0.147l9.633-9.929c3.846-3.964,3.751-10.294-0.213-14.141
				c-3.963-3.846-10.295-3.751-14.141,0.212l-27.631,28.479l0.317-2.493c0.697-5.479-3.18-10.485-8.658-11.182
				c-5.484-0.701-10.484,3.179-11.182,8.658l-3.681,28.932l-4.797,4.944c-0.035,0.036-0.074,0.067-0.11,0.104l-23.04,23.75
				c-0.039,0.04-0.07,0.083-0.107,0.124c-0.124,0.131-0.24,0.268-0.357,0.406c-0.1,0.118-0.2,0.236-0.294,0.357
				c-0.099,0.13-0.19,0.265-0.284,0.399c-0.095,0.137-0.191,0.273-0.279,0.415c-0.08,0.129-0.152,0.264-0.227,0.396
				c-0.084,0.151-0.17,0.301-0.246,0.455c-0.068,0.14-0.129,0.285-0.192,0.428c-0.064,0.151-0.134,0.301-0.191,0.455
				c-0.059,0.158-0.109,0.32-0.16,0.482c-0.047,0.144-0.096,0.289-0.135,0.435c-0.047,0.17-0.082,0.344-0.119,0.517
				c-0.03,0.144-0.064,0.288-0.088,0.433c-0.029,0.169-0.047,0.341-0.066,0.513c-0.018,0.156-0.037,0.312-0.048,0.468
				c-0.011,0.16-0.013,0.321-0.017,0.482c-0.002,0.174-0.006,0.347,0,0.521c0.002,0.057-0.003,0.113,0,0.17
				c0.006,0.104,0.021,0.204,0.03,0.306c0.013,0.164,0.027,0.327,0.048,0.49c0.021,0.166,0.05,0.329,0.079,0.492
				c0.027,0.151,0.056,0.302,0.09,0.452c0.038,0.17,0.083,0.336,0.131,0.502c0.04,0.141,0.081,0.282,0.128,0.422
				c0.055,0.166,0.116,0.33,0.18,0.492c0.054,0.136,0.107,0.273,0.168,0.407c0.07,0.159,0.147,0.314,0.226,0.469
				c0.067,0.132,0.134,0.264,0.208,0.394c0.086,0.152,0.178,0.298,0.271,0.445c0.08,0.125,0.158,0.25,0.243,0.372
				c0.106,0.151,0.22,0.295,0.334,0.44c0.085,0.108,0.167,0.217,0.257,0.322c0.14,0.163,0.288,0.316,0.438,0.47
				c0.066,0.069,0.126,0.142,0.195,0.21c0.013,0.012,0.026,0.022,0.039,0.034c0.157,0.151,0.324,0.292,0.492,0.432
				c0.082,0.069,0.16,0.145,0.244,0.211c0.148,0.117,0.306,0.222,0.461,0.33c0.273,0.192,0.555,0.37,0.844,0.531
				c0.094,0.053,0.184,0.111,0.278,0.161c0.165,0.086,0.335,0.158,0.505,0.233c0.121,0.055,0.24,0.116,0.364,0.166
				c0.15,0.06,0.304,0.108,0.456,0.161c0.15,0.052,0.297,0.109,0.449,0.154c0.138,0.04,0.278,0.069,0.418,0.104
				c0.17,0.042,0.338,0.089,0.512,0.122c0.145,0.028,0.291,0.044,0.438,0.064c0.168,0.025,0.334,0.056,0.504,0.072
				c0.268,0.025,0.535,0.035,0.803,0.039c0.05,0.001,0.098,0.007,0.148,0.007c0.002,0,0.003,0,0.004,0c0.002,0,0.002,0,0.003,0
				c0.003,0,0.005-0.001,0.007-0.001c0.162,0,0.324-0.003,0.488-0.012l25.49-1.26c5.516-0.273,9.767-4.965,9.494-10.482
				c-0.272-5.515-4.943-9.76-10.482-9.494l-0.16,0.008l3.001-3.092l25.71-3.678c5.468-0.782,9.266-5.849,8.483-11.316
				c-0.782-5.468-5.85-9.26-11.315-8.483l-0.104,0.015l2.83-2.917l26.795-3.944c5.464-0.805,9.241-5.886,8.438-11.35
				C362.72,118.149,357.637,114.376,352.174,115.176z"/>
			<path style="fill:#60833E;" d="M272.43,217.58c-2.559,0-5.117-0.976-7.069-2.927L158.598,107.89
				c-3.905-3.906-3.903-10.237,0.002-14.142c3.906-3.905,10.238-3.904,14.142,0.002l106.757,106.757
				c3.906,3.904,3.907,10.236,0.003,14.142C277.55,216.603,274.989,217.58,272.43,217.58z"/>
			<path style="fill:#60833E;" d="M196.763,141.912c-0.471,0-0.947-0.033-1.427-0.102l-31.08-4.44
				c-5.467-0.781-9.267-5.846-8.485-11.313c0.781-5.467,5.855-9.267,11.314-8.485l31.08,4.44c5.467,0.781,9.267,5.846,8.485,11.314
				C205.937,138.312,201.658,141.912,196.763,141.912z"/>
			<path style="fill:#60833E;" d="M223.413,168.551c-0.471,0-0.947-0.033-1.426-0.102l-31.09-4.44
				c-5.468-0.781-9.267-5.846-8.486-11.313c0.781-5.468,5.846-9.271,11.313-8.486l31.09,4.44c5.468,0.781,9.267,5.846,8.486,11.313
				C232.587,164.951,228.309,168.551,223.413,168.551z"/>
			<path style="fill:#60833E;" d="M250.053,195.202c-0.471,0-0.947-0.033-1.427-0.102l-31.08-4.44
				c-5.467-0.781-9.266-5.846-8.485-11.314c0.781-5.467,5.848-9.267,11.314-8.485l31.08,4.44c5.467,0.781,9.266,5.846,8.485,11.314
				C259.227,191.602,254.948,195.202,250.053,195.202z"/>
			<path style="fill:#60833E;" d="M214.507,159.671c-4.896,0-9.174-3.6-9.887-8.588l-4.44-31.09
				c-0.781-5.467,3.018-10.532,8.486-11.313c5.461-0.783,10.532,3.017,11.313,8.486l4.44,31.09
				c0.781,5.467-3.018,10.532-8.486,11.313C215.455,159.638,214.978,159.671,214.507,159.671z"/>
			<path style="fill:#60833E;" d="M241.147,186.311c-4.896,0-9.174-3.6-9.887-8.587l-4.44-31.08
				c-0.781-5.467,3.018-10.533,8.485-11.313c5.465-0.78,10.532,3.018,11.313,8.485l4.44,31.08
				c0.781,5.467-3.018,10.533-8.485,11.314C242.095,186.278,241.618,186.311,241.147,186.311z"/>
			<path style="fill:#5B5A57;" d="M380,490H140c-5.523,0-10-4.478-10-10s4.477-10,10-10h240c5.522,0,10,4.478,10,10
				S385.522,490,380,490z"/>
		</g>
	</g>
</g>
<g id="Layer_1">
</g>
</svg>
