<?xml version="1.0" encoding="utf-8"?>
<!-- Generator: Adobe Illustrator 24.0.2, SVG Export Plug-In . SVG Version: 6.00 Build 0)  -->
<svg version="1.1" id="Layer_1" xmlns="http://www.w3.org/2000/svg" xmlns:xlink="http://www.w3.org/1999/xlink" x="0px" y="0px"
	 viewBox="0 0 512 512" style="enable-background:new 0 0 512 512;" xml:space="preserve">
<style type="text/css">
	.st0{fill-rule:evenodd;clip-rule:evenodd;fill:#E8F4DF;}
	.st1{fill:#335B66;}
</style>
<g transform="matrix(1,0,0,1,274.652,265.67)">
	<circle class="st0" cx="-18.5633" cy="-9.9601" r="250.0002"/>
</g>
<g>
	<g>
		<path class="st1" d="M359.6113,437.8114c-19.1474-21.5243-39.5819-41.7319-56.805-64.9216
			c-14.9552-20.1364-27.4389-41.9611-37.9603-64.7153c-21.0007-45.4149-31.6022-93.8401-39.3333-143.0284
			c-0.2727-1.7347-3.0834-1.7931-3.1663,0.0647c-4.7745,106.9084,59.8536,204.6784,136.6559,273.2196
			C359.3708,438.7592,359.9405,438.1812,359.6113,437.8114L359.6113,437.8114z"/>
	</g>
	<g>
		<g>
			<path class="st1" d="M224.6626,166.3027c-9.4211-9.302-11.8153-21.0167-11.4626-33.8137
				c0.2281-8.2649,2.0417-15.8635,6.8056-22.6958c2.8806-4.1316,8.553-12.949,12.6036-9.2845
				c7.2244,6.5365,7.3737,26.5667,5.971,34.9381c-1.9235,11.479-7.2603,22.008-14.8991,30.6963
				c-0.5958,0.6776,0.3963,1.5023,1.0681,1.0512c23.5289-15.8043,19.7054-51.3248,8.1094-72.7251
				c-0.4129-0.7615-1.5665-1.3353-2.323-0.5942c-12.1851,11.941-20.193,22.418-20.521,40.0177
				c-0.2378,12.7478,2.2493,26.1141,13.9792,33.0895C224.4154,167.2334,225.0845,166.7196,224.6626,166.3027L224.6626,166.3027z"/>
		</g>
		<g>
			<path class="st1" d="M228.6321,110.1848c-5.0089,27.975-8.3839,56.4824-4.4942,84.8742c0.0967,0.707,1.2413,0.7166,1.2768-0.0262
				c1.3553-28.3952,0.8931-56.4472,3.4733-84.82C228.9033,110.0467,228.6609,110.0226,228.6321,110.1848L228.6321,110.1848z"/>
		</g>
		<g>
			<path class="st1" d="M221.2889,119.5558c-4.0467,14.129-4.7652,30.3331,0.1568,44.3506
				c0.1379,0.3927,0.7456,0.2012,0.6874-0.1964c-2.2045-15.1091-3.2553-28.9471-0.7451-44.1294
				C221.3972,119.5246,221.3053,119.4996,221.2889,119.5558L221.2889,119.5558z"/>
		</g>
		<g>
			<path class="st1" d="M233.5983,129.0505c-1.6427,11.8934-3.941,23.2509-8.1492,34.5289
				c-0.2706,0.7246,0.6685,1.2191,1.1563,0.6517c3.944-4.593,5.0862-10.3356,5.9468-16.1981
				c0.9187-6.2571,1.8808-12.6715,1.1483-18.9845C233.6935,128.989,233.606,128.9933,233.5983,129.0505L233.5983,129.0505z"/>
		</g>
	</g>
	<g>
		<g>
			<path class="st1" d="M249.8215,221.2042c-5.8654-12.0001-4.2918-23.7553,0.3915-35.7634
				c2.5874-6.6339,5.9348-12.6863,11.4965-17.2703c2.993-2.4671,10.2737-8.3811,14.3711-8.5102
				c8.6687-0.2734,0.666,29.7026-1.5645,34.427c-5.3428,11.3166-14.6309,20.5285-25.435,26.6136
				c-0.6777,0.3814-0.4906,1.6765,0.4124,1.4404c27.5651-7.2035,35.6175-41.9687,31.7666-66.1284
				c-0.1496-0.9363-1.2034-1.5829-2.0965-1.1636c-13.9402,6.5448-25.0295,13.0667-31.2177,27.8085
				c-5.3116,12.6526-8.4772,27.6861,1.0552,39.0327C249.3402,222.0939,250.0701,221.7126,249.8215,221.2042L249.8215,221.2042z"/>
		</g>
		<g>
			<path class="st1" d="M272.1117,169.5518c-13.9803,24.8112-26.5467,50.5562-32.2667,78.7091
				c-0.1475,0.7254,0.9728,0.9652,1.2381,0.3083c10.6477-26.345,19.4574-52.9714,31.2514-78.8921
				C272.3929,169.5477,272.1835,169.4242,272.1117,169.5518L272.1117,169.5518z"/>
		</g>
		<g>
			<path class="st1" d="M262.0725,176.0004c-8.5085,12.0903-14.3675,26.9355-14.4823,41.8513
				c-0.0034,0.4604,0.6296,0.541,0.717,0.0789c2.8288-14.9778,6.5423-28.4382,13.8537-41.88
				C262.1889,175.9995,262.1052,175.9537,262.0725,176.0004L262.0725,176.0004z"/>
		</g>
		<g>
			<path class="st1" d="M270.5602,189.0249c-5.441,10.7355-11.4263,20.6918-19.1125,29.9384
				c-0.4072,0.49,0.2121,1.3598,0.7993,1.0191c9.6059-5.5764,15.9671-20.642,18.4125-30.9332
				C270.6737,188.9893,270.5848,188.977,270.5602,189.0249L270.5602,189.0249z"/>
		</g>
	</g>
	<g>
		<g>
			<path class="st1" d="M296.004,331.631c-8.8144-10.0425-10.3809-21.7989-9.0143-34.6197
				c0.8065-7.5676,2.8265-14.6313,7.3892-20.8088c1.8042-2.4425,9.4887-12.1808,12.6686-11.448
				c3.2634,0.7524,5.0301,12.9784,5.5009,15.5327c1.1337,6.1549,1.2589,12.527,0.1596,18.6956
				c-2.1954,12.319-8.7179,23.6397-17.5479,32.3486c-0.5493,0.5419-0.0485,1.756,0.7641,1.2892
				c24.7122-14.1973,23.4403-49.7956,13.3-72.1387c-0.3878-0.8549-1.5634-1.2397-2.3226-0.594
				c-12.3248,10.479-21.2119,20.1314-23.0267,36.7809c-1.4344,13.1618-0.2404,27.5266,11.4603,35.6418
				C295.7647,332.6084,296.378,332.0573,296.004,331.631L296.004,331.631z"/>
		</g>
		<g>
			<path class="st1" d="M303.9464,275.9352c-6.9745,27.6093-12.342,55.7503-10.4679,84.4156
				c0.0484,0.7415,1.1923,0.682,1.2768-0.0262c3.3568-28.2155,4.8651-56.2206,9.4388-84.328
				C304.2169,275.8561,303.9825,275.793,303.9464,275.9352L303.9464,275.9352z"/>
		</g>
		<g>
			<path class="st1" d="M295.9525,284.7935c-5.0284,13.7857-6.8937,29.877-2.9848,44.1827c0.1206,0.4425,0.7482,0.3639,0.713-0.1079
				c-1.144-15.2971-1.2155-29.0553,2.371-44.0504C296.0652,284.761,295.9719,284.7394,295.9525,284.7935L295.9525,284.7935z"/>
		</g>
		<g>
			<path class="st1" d="M307.5628,295.1319c-2.4804,11.7951-5.578,22.9361-10.5816,33.9083
				c-0.2619,0.5739,0.5603,1.2553,1.0343,0.7753c7.7336-7.8339,10.1188-24.099,9.6495-34.6856
				C307.6622,295.0675,307.5738,295.079,307.5628,295.1319L307.5628,295.1319z"/>
		</g>
	</g>
	<g>
		<g>
			<path class="st1" d="M233.8141,283.53c2.4064-14.0445-7.0285-24.9562-17.4295-33.1563
				c-13.1958-10.4034-26.2646-10.7678-42.3826-9.3139c-1.01,0.0912-1.4951,1.2389-1.1641,2.0964
				c8.7886,22.7546,33.2777,48.7229,60.6116,41.0686c0.7338-0.2055,0.9101-1.5132-0.0306-1.4979
				c-10.6661,0.1731-21.1146-2.1557-30.5826-7.1754c-6.2795-3.3293-11.5358-7.7776-16.0296-13.3098
				c-2.1857-2.6909-11.0853-13.3359-9.879-16.8861c1.142-3.362,11.4911-2.2929,14.179-2.0986
				c7.8739,0.5689,14.1709,3.0048,20.6188,7.4998c11.3588,7.9185,20.0795,18.5637,21.1356,32.7933
				C232.9028,284.1176,233.7263,284.0422,233.8141,283.53L233.8141,283.53z"/>
		</g>
		<g>
			<path class="st1" d="M187.4241,250.4107c23.263,16.4303,44.3068,34.9749,66.7957,52.3482
				c0.5652,0.4366,1.3908-0.3558,0.8956-0.9102c-19.1141-21.3936-42.9725-37.2947-67.5359-51.6433
				C187.4402,250.124,187.2853,250.3129,187.4241,250.4107L187.4241,250.4107z"/>
		</g>
		<g>
			<path class="st1" d="M199.4221,250.7794c13.1892,7.9338,23.0045,17.6671,33.0978,29.1735
				c0.2532,0.2884,0.833,0.0081,0.6155-0.365c-7.4912-12.8455-20.2658-22.8098-33.6633-28.8975
				C199.4203,250.6668,199.3718,250.7494,199.4221,250.7794L199.4221,250.7794z"/>
		</g>
		<g>
			<path class="st1" d="M198.6443,266.2909c7.1601,7.685,20.4084,17.4492,31.3494,17.4151c0.7015-0.0021,1.0883-1.0087,0.321-1.2878
				c-11.325-4.114-21.4471-9.7115-31.5988-16.2002C198.6703,266.1888,198.6017,266.2453,198.6443,266.2909L198.6443,266.2909z"/>
		</g>
	</g>
	<g>
		<g>
			<path class="st1" d="M315.0736,413.2916c-3.4194-13.2814-15.5372-19.4554-27.9654-22.815
				c-16.9041-4.5692-28.9932,0.0271-43.7822,8.3234c-0.7404,0.4153-1.3568,1.57-0.594,2.3226
				c17.3757,17.1439,50.3972,31.1323,72.3316,12.8367c0.641-0.5351,0.0375-1.663-0.7641-1.2892
				c-10.0285,4.6791-21.0492,6.877-32.1263,5.8004c-5.9783-0.5809-39.0757-11.7968-33.5083-19.1918
				c1.8357-2.4385,8.4039-4.3881,11.2249-5.4319c6.614-2.4459,13.1535-2.9729,20.0899-1.8492
				c14.0058,2.269,27.2436,8.7178,34.177,21.5563C314.3951,413.9955,315.2199,413.8603,315.0736,413.2916L315.0736,413.2916z"/>
		</g>
		<g>
			<path class="st1" d="M259.1934,401.964c27.9597,5.4801,54.7879,13.7863,82.421,20.4686c0.7316,0.1771,0.94-0.9562,0.3084-1.2386
				c-26.1659-11.6988-54.445-16.4477-82.701-19.4857C259.0549,401.6901,259.0327,401.9327,259.1934,401.964L259.1934,401.964z"/>
		</g>
		<g>
			<path class="st1" d="M270.2847,397.3929c15.2539,1.8835,28.3462,6.703,42.1627,13.1039
				c0.3687,0.1708,0.6823-0.3891,0.3509-0.6223c-12.2119-8.5966-27.7037-12.4701-42.5025-12.584
				C270.2307,397.2902,270.2172,397.3847,270.2847,397.3929L270.2847,397.3929z"/>
		</g>
		<g>
			<path class="st1" d="M275.9168,411.8676c6.1225,2.5883,12.8681,3.4573,19.4174,4.3467
				c5.5649,0.7558,11.1714,1.1145,16.3671-1.2976c0.71-0.33,0.3837-1.3331-0.3654-1.2772
				c-11.995,0.8943-23.5197-0.1103-35.3947-1.8711C275.8827,411.7602,275.8638,411.8456,275.9168,411.8676L275.9168,411.8676z"/>
		</g>
	</g>
	<g>
		<g>
			<path class="st1" d="M199.6257,197.7316c6.6683,4.135,11.9359,9.0595,17.4717,14.5766
				c10.5631,10.5272,15.3584,20.0122,17.9544,34.5612c0.1143,0.6413,1.1934,0.8953,1.383,0.1586
				c5.2155-20.2364-21.2233-41.0493-36.519-49.6799C199.6534,197.2001,199.3589,197.5658,199.6257,197.7316L199.6257,197.7316z"/>
		</g>
		<g>
			<path class="st1" d="M198.9936,183.0533c1.2243-9.6832-15.2644-9.3605-20.5574-5.9555
				c-8.0896,5.2043-9.3784,17.3463-3.0578,24.4274c6.6302,7.4285,20.7138,7.1877,26.0577-1.7277
				c5.8933-9.8323-5.6377-22.3843-16.0289-18.7164c-5.1401,1.8144-8.5885,7.4783-7.0826,12.8778
				c1.2733,4.5635,7.0455,8.18,11.2376,4.7829c0.6554-0.5309,0.5913-1.4879-0.166-1.892c-3.0497-1.6291-7.2341-5.7589-3.041-8.9402
				c3.7993-2.8828,8.7614,0.7478,9.8522,4.5712c2.4555,8.605-9.0359,11.0739-14.7962,8.1453
				c-6.1938-3.1497-7.6963-11.4529-4.1726-17.1497c3.8642-6.2475,17.9862-8.9485,21.4244-0.3963
				C198.7234,183.2289,198.9712,183.2306,198.9936,183.0533L198.9936,183.0533z"/>
		</g>
	</g>
	<g>
		<g>
			<path class="st1" d="M349.306,355.5886c-6.2172,10.5367-10.5747,23.0292-12.4232,35.1298
				c-1.4023,9.1767-2.5672,24.2275,4.2338,31.5182c0.5788,0.6207,1.4592,0.0554,1.2302-0.7294
				c-6.4692-22.1855-3.6249-45.2989,7.3741-65.6848C349.8484,355.5865,349.4435,355.3552,349.306,355.5886L349.306,355.5886z"/>
		</g>
		<g>
			<path class="st1" d="M342.9701,342.7775c-5.8757-7.7935,8.5919-15.7097,14.8771-15.3866
				c9.6062,0.494,16.7608,10.3888,14.7969,19.6749c-2.0602,9.7417-14.4004,16.534-23.4692,11.4547
				c-10.0012-5.6011-6.2356-22.2251,4.6038-24.208c5.3624-0.9811,11.1697,2.2191,12.5471,7.6528
				c1.1642,4.5929-2.0469,10.6003-7.3727,9.7368c-0.8327-0.1349-1.2527-0.9972-0.7968-1.7243
				c1.8363-2.9297,3.4138-8.593-1.8055-9.269c-4.7298-0.6129-7.2306,5.0044-6.2767,8.8642
				c2.1475,8.6867,13.3455,5.1168,16.8875-0.288c3.809-5.8122,0.985-13.7632-4.9047-16.9545
				c-6.4586-3.5-20.0548,1.1765-18.7868,10.3065C343.2924,342.7962,343.078,342.9203,342.9701,342.7775L342.9701,342.7775z"/>
		</g>
	</g>
	<g>
		<g>
			<path class="st1" d="M248.6778,340.9535c16.8248,2.9325,35.7864,12.0469,46.1065,25.9765
				c0.3485,0.4704,1.1962,0.1335,1.0687-0.4608c-1.6482-7.6856-11.5076-12.496-17.8268-16.0424
				c-8.8706-4.9783-19.2144-8.5308-29.3048-9.8719C248.4644,340.5208,248.4249,340.9091,248.6778,340.9535L248.6778,340.9535z"/>
		</g>
		<g>
			<path class="st1" d="M243.5699,329.7947c-2.0812-7.8703-14.7303-2.4654-17.7588,1.8222
				c-4.6283,6.5534-1.8289,16.3457,5.2723,19.8452c7.4496,3.6712,18.265-0.9182,19.6098-9.4833
				c1.4835-9.445-11.3579-15.5464-18.2464-9.4614c-3.4074,3.0105-4.3032,8.468-1.4503,12.1721
				c2.4113,3.1309,8.0058,4.1229,10.1851,0.1857c0.3408-0.6158-0.0078-1.3357-0.7195-1.4115
				c-2.8681-0.3065-7.3947-2.1913-5.147-5.9622c2.0363-3.4173,7.0088-2.1613,9.0479,0.4541
				c4.5889,5.8863-3.5253,11.3885-8.8952,10.9246c-5.7746-0.4989-9.5321-6.45-8.5881-11.9567
				c1.0348-6.0392,11.1105-12.5431,16.4432-7.0049C243.4158,330.0155,243.6079,329.9389,243.5699,329.7947L243.5699,329.7947z"/>
		</g>
	</g>
	<g>
		<g>
			<path class="st1" d="M268.1601,265.1728c-6.4286,10.6935-14.9605,31.5272-5.2325,42.4199
				c0.3775,0.4227,1.0566,0.0378,0.8537-0.5057c-5.2517-14.0719-2.4555-28.7128,4.6667-41.752
				C268.537,265.1716,268.2567,265.0119,268.1601,265.1728L268.1601,265.1728z"/>
		</g>
		<g>
			<path class="st1" d="M263.8242,256.255c-4.0402-5.4336,6.0331-10.8588,10.3921-10.6058
				c6.6618,0.387,11.5797,7.2846,10.1743,13.718c-1.4744,6.7482-10.0664,11.4034-16.3344,7.8382
				c-6.9127-3.932-4.2238-15.4474,3.3055-16.7733c3.7246-0.6558,7.7387,1.5913,8.6692,5.3675
				c0.7861,3.1912-1.469,7.3442-5.1596,6.7205c-0.5775-0.0977-0.8644-0.6977-0.5451-1.2001
				c1.2874-2.0242,2.4081-5.9458-1.2096-6.4385c-3.2784-0.4472-5.0391,3.4382-4.3954,6.1205
				c1.4495,6.036,9.2347,3.6113,11.7173-0.1219c2.6689-4.0145,0.7463-9.544-3.3244-11.785
				c-4.4648-2.458-13.9187,0.7235-13.0809,7.0633C264.048,256.2693,263.8985,256.3549,263.8242,256.255L263.8242,256.255z"/>
		</g>
	</g>
</g>
</svg>
